<?xml version="1.0" encoding="utf-8"?>
<!-- Generator: Adobe Illustrator 24.3.0, SVG Export Plug-In . SVG Version: 6.00 Build 0)  -->
<svg version="1.1" id="Layer_1" xmlns="http://www.w3.org/2000/svg" xmlns:xlink="http://www.w3.org/1999/xlink" x="0px" y="0px"
	 viewBox="0 0 24 24" style="enable-background:new 0 0 24 24;" xml:space="preserve">
<style type="text/css">
	.st0{fill:#1D3354;}
	.st1{fill:#33648A;}
	.st2{fill:#D74247;}
</style>
<path class="st0" d="M23.4,17.1l-11-5c-0.3-0.1-0.6-0.1-0.8,0l-11,5C0.2,17.3,0,17.6,0,18s0.2,0.7,0.6,0.9l11,5
	C11.7,24,11.9,24,12,24c0.1,0,0.3,0,0.4-0.1l11-5c0.4-0.2,0.6-0.5,0.6-0.9S23.8,17.3,23.4,17.1z"/>
<path class="st1" d="M23.4,11.1l-11-5c-0.3-0.1-0.6-0.1-0.8,0l-11,5C0.2,11.3,0,11.6,0,12c0,0.4,0.2,0.7,0.6,0.9l11,5
	C11.7,18,11.9,18,12,18c0.1,0,0.3,0,0.4-0.1l11-5c0.4-0.2,0.6-0.5,0.6-0.9C24,11.6,23.8,11.3,23.4,11.1z"/>
<path class="st2" d="M23.4,5.1l-11-5c-0.3-0.1-0.6-0.1-0.8,0l-11,5C0.2,5.3,0,5.6,0,6s0.2,0.7,0.6,0.9l11,5C11.7,12,11.9,12,12,12
	c0.1,0,0.3,0,0.4-0.1l11-5C23.8,6.7,24,6.4,24,6S23.8,5.3,23.4,5.1z"/>
</svg>
